<svg height="511pt" viewBox="-36 0 511 511.99546" width="511pt" xmlns="http://www.w3.org/2000/svg"><path d="m420.496094 373.722656v-73.71875c0-45.789062-16.039063-90.617187-45.160156-126.230468-25.546876-31.246094-60.03125-54.148438-98.253907-65.53125.832031-2.320313 1.398438-4.769532 1.648438-7.320313l.640625-6.441406 3.964844-4.835938c9.453124-11.21875 9.566406-27.585937.257812-38.960937l-4.222656-5.15625-.597656-6.027344c-1.230469-14.636719-12.726563-26.289062-27.359376-27.730469l-6.441406-.640625-4.835937-3.960937c-11.21875-9.453125-27.585938-9.570313-38.960938-.261719l-5.15625 4.222656-6.023437.597656c-14.636719 1.230469-26.292969 12.722657-27.734375 27.359376l-.640625 6.441406-3.964844 4.839844c-9.449219 11.214843-9.566406 27.582031-.257812 38.957031l4.222656 5.15625.597656 6.023437c.226562 2.691406.804688 5.285156 1.679688 7.730469-16.894532 5.011719-33.042969 12.25-48.171876 21.613281-4.695312 2.910156-6.144531 9.074219-3.234374 13.769532 1.890624 3.054687 5.160156 4.734374 8.507812 4.734374 1.796875 0 3.617188-.484374 5.257812-1.5 16.269532-10.074218 33.851563-17.421874 52.316407-21.867187 1.671875.863281 3.4375 1.578125 5.277343 2.125-10.511718 17.742187-17.40625 40.933594-21.605468 59.164063-7.6875 33.378906-11.75 72.707031-11.75 113.726562 0 5.523438 4.476562 10 10 10 5.523437 0 10-4.476562 10-10 0-70.820312 13.035156-136.277344 32.347656-165.632812 5.269531 3.75 11.449219 5.636718 17.640625 5.636718 6.183594 0 12.363281-1.890625 17.648437-5.648437 15.023438 22.828125 26.53125 67.832031 30.683594 121.445312.402344 5.246094 4.785156 9.230469 9.957032 9.230469.257812 0 .519531-.011719.78125-.03125 5.507812-.425781 9.625-5.234375 9.199218-10.742188-4.226562-54.59375-15.753906-100.273437-31.640625-127.136718 1.851563-.546875 3.632813-1.261719 5.320313-2.136719 80.238281 19.339844 138.0625 92.300781 138.0625 175.015625v71.996094h-10.003906c-7.675782 0-14.6875 2.902344-20 7.664062-5.308594-4.761718-12.320313-7.664062-19.996094-7.664062h-20c-7.679688 0-14.6875 2.902344-20 7.664062-5.3125-4.761718-12.324219-7.664062-20-7.664062h-20c-7.679688 0-14.6875 2.902344-20 7.664062-5.3125-4.761718-12.320313-7.664062-20-7.664062h-20c-7.679688 0-14.6875 2.902344-20 7.664062-5.3125-4.761718-12.320313-7.664062-20-7.664062h-20c-7.679688 0-14.6875 2.902344-20 7.664062-5.3125-4.761718-12.320313-7.664062-20-7.664062h-20c-7.675782 0-14.6875 2.902344-20 7.664062-5.3125-4.761718-12.320313-7.664062-20-7.664062h-10v-71.996094c0-32.582031 8.914062-64.566406 25.773437-92.488281 2.855469-4.726563 1.335938-10.875-3.394531-13.730469-4.722656-2.851562-10.871094-1.332031-13.726562 3.394531-18.746094 31.042969-28.652344 66.597657-28.652344 102.824219v73.71875c-11.636719 4.125-20 15.242188-20 28.277344v80c0 16.542968 13.460937 30 30 30h20c7.679687 0 14.6875-2.902344 20-7.664063 5.3125 4.761719 12.324218 7.664063 20 7.664063h20c7.679687 0 14.6875-2.902344 20-7.664063 5.3125 4.761719 12.320312 7.664063 20 7.664063h20c7.679687 0 14.6875-2.902344 20-7.664063 5.3125 4.761719 12.320312 7.664063 20 7.664063h20c7.679687 0 14.6875-2.902344 20-7.664063 5.3125 4.761719 12.320312 7.664063 20 7.664063h20c7.675781 0 14.6875-2.902344 20-7.664063 5.3125 4.761719 12.320312 7.664063 20 7.664063h20c7.675781 0 14.6875-2.902344 19.996094-7.664063 5.3125 4.761719 12.324218 7.664063 20 7.664063h20.003906c16.539062 0 29.996094-13.457032 29.996094-30v-80c0-13.03125-8.359376-24.148438-19.996094-28.273438zm-206.773438-256.191406c-.042968-.039062-.085937-.074219-.128906-.109375l-7.238281-5.929687c-1.523438-1.25-3.386719-2.019532-5.351563-2.214844l-9.457031-.941406c-5.042969-.496094-8.992187-4.507813-9.398437-9.539063-.003907-.058594-.011719-.121094-.015626-.183594l-.90625-9.117187c-.195312-1.964844-.964843-3.824219-2.214843-5.351563l-6.140625-7.488281c-3.207032-3.925781-3.167969-9.570312.101562-13.425781.035156-.042969.070313-.085938.105469-.128907l5.933594-7.238281c1.25-1.523437 2.019531-3.386719 2.214843-5.351562l.9375-9.457031c.496094-5.039063 4.507813-8.992188 9.539063-9.398438.0625-.007812.121094-.011719.183594-.019531l9.121093-.902344c1.960938-.195313 3.824219-.96875 5.351563-2.21875l7.488281-6.136719c1.941406-1.585937 4.300782-2.378906 6.660156-2.378906 2.410157 0 4.816407.828125 6.765626 2.480469.042968.035156.082031.070312.125.105469l7.242187 5.929687c1.523437 1.25 3.386719 2.023437 5.347656 2.21875l9.460938.9375c5.039062.496094 8.992187 4.507813 9.398437 9.539063.007813.0625.011719.121093.019532.183593l.902343 9.117188c.195313 1.964843.96875 3.828125 2.21875 5.351562l6.136719 7.492188c3.207031 3.921875 3.167969 9.570312-.101562 13.425781-.035157.039062-.070313.082031-.105469.125l-5.933594 7.238281c-1.25 1.527344-2.019531 3.390625-2.214844 5.351563l-.9375 9.460937c-.496093 5.039063-4.507812 8.992188-9.539062 9.398438-.0625.003906-.121094.011719-.183594.015625l-9.121094.90625c-1.960937.195312-3.824219.964844-5.351562 2.214844l-7.488281 6.136718c-3.925782 3.210938-9.570313 3.167969-13.425782-.097656zm-163.226562 374.46875h-19.996094c-5.515625 0-10-4.484375-10-10v-80c0-5.511719 4.484375-10 10-10h19.996094c5.515625 0 10 4.488281 10 10v80c0 5.515625-4.484375 10-10 10zm60 0h-19.996094c-5.515625 0-10-4.484375-10-10v-80c0-5.511719 4.484375-10 10-10h19.996094c5.515625 0 10 4.488281 10 10v80c0 5.515625-4.484375 10-10 10zm60 0h-20c-5.511719 0-10-4.484375-10-10v-80c0-5.511719 4.488281-10 10-10h20c5.515625 0 10 4.488281 10 10v80c0 5.515625-4.484375 10-10 10zm60 0h-20c-5.515625 0-10-4.484375-10-10v-80c0-5.511719 4.484375-10 10-10h20c5.515625 0 10 4.488281 10 10v80c0 5.515625-4.484375 10-10 10zm60 0h-20c-5.511719 0-10-4.484375-10-10v-80c0-5.511719 4.488281-10 10-10h20c5.515625 0 10 4.488281 10 10v80c0 5.515625-4.484375 10-10 10zm60 0h-20c-5.515625 0-10-4.484375-10-10v-80c0-5.511719 4.484375-10 10-10h20c5.511718 0 10 4.488281 10 10v80c0 5.515625-4.484375 10-10 10zm70-10c0 5.515625-4.488282 10-10 10h-20.003906c-5.511719 0-10-4.484375-10-10v-80c0-5.511719 4.488281-10 10-10h20.003906c5.511718 0 10 4.488281 10 10zm0 0"/><path d="m85.566406 176.574219c2.707032 0 5.402344-1.089844 7.375-3.242188l.007813-.007812c3.730469-4.070313 3.453125-10.390625-.617188-14.125-4.074219-3.730469-10.402343-3.453125-14.132812.617187-3.730469 4.070313-3.457031 10.398438.613281 14.128906 1.921875 1.761719 4.34375 2.628907 6.753906 2.628907zm0 0"/><path d="m280.488281 310.007812c.222657 0 .445313-.007812.671875-.023437 5.511719-.367187 9.679688-5.132813 9.3125-10.644531v-.007813c-.367187-5.507812-5.132812-9.683593-10.640625-9.308593-5.511719.367187-9.679687 5.136718-9.3125 10.648437.351563 5.28125 4.746094 9.335937 9.96875 9.335937zm0 0"/></svg>