<?xml version="1.0" encoding="utf-8"?>
<!-- Generator: Adobe Illustrator 23.0.3, SVG Export Plug-In . SVG Version: 6.00 Build 0)  -->
<svg version="1.1" id="Capa_1" xmlns="http://www.w3.org/2000/svg" xmlns:xlink="http://www.w3.org/1999/xlink" x="0px" y="0px"
	 viewBox="0 0 747 748" style="enable-background:new 0 0 747 748;" xml:space="preserve">
<style type="text/css">
	.st0{fill:#A1BFE5;}
	.st1{fill:#FFFFFF;}
</style>
<circle class="st0" cx="373.5" cy="374.5" r="373.5"/>
<g>
	<g>
		<path class="st1" d="M573.4,489.7c0.8,6.5-1.1,12.1-5.9,16.9l-56.4,55.9c-2.5,2.8-5.9,5.2-10,7.2s-8.1,3.2-12.1,3.8
			c-0.3,0-1.1,0.1-2.5,0.2c-1.4,0.1-3.2,0.2-5.5,0.2c-5.4,0-14.1-0.9-26.1-2.8c-12-1.8-26.7-6.4-44.1-13.6
			c-17.4-7.2-37.1-18-59.1-32.4c-22-14.4-45.5-34.2-70.3-59.3c-19.8-19.5-36.2-38.1-49.2-55.9s-23.4-34.3-31.4-49.4
			c-7.9-15.1-13.8-28.8-17.8-41.1c-4-12.3-6.6-22.9-8.1-31.8c-1.4-8.9-2-15.9-1.7-21s0.4-7.9,0.4-8.5c0.6-4,1.8-8,3.8-12.1
			s4.4-7.4,7.2-10l56.4-56.4c4-4,8.5-5.9,13.6-5.9c3.7,0,6.9,1.1,9.7,3.2s5.2,4.7,7.2,7.8l45.3,86c2.5,4.5,3.2,9.5,2.1,14.8
			c-1.1,5.4-3.5,9.9-7.2,13.6l-20.8,20.8c-0.6,0.6-1.1,1.5-1.5,2.8s-0.6,2.3-0.6,3.2c1.1,5.9,3.7,12.7,7.6,20.3
			c3.4,6.8,8.6,15,15.7,24.8c7.1,9.7,17.1,21,30.1,33.7c12.7,13,24,23.1,33.9,30.3c9.9,7.2,18.2,12.5,24.8,15.9
			c6.6,3.4,11.7,5.4,15.3,6.1l5.3,1.1c0.6,0,1.5-0.2,2.8-0.6s2.2-0.9,2.8-1.5l24.2-24.6c5.1-4.5,11-6.8,17.8-6.8
			c4.8,0,8.6,0.8,11.4,2.5h0.4l81.8,48.3C568.8,479.4,572.3,484,573.4,489.7z"/>
	</g>
</g>
</svg>
