<?xml version="1.0" encoding="utf-8"?>
<!-- Generator: Adobe Illustrator 23.0.6, SVG Export Plug-In . SVG Version: 6.00 Build 0)  -->
<svg version="1.1" id="Capa_1" xmlns="http://www.w3.org/2000/svg" xmlns:xlink="http://www.w3.org/1999/xlink" x="0px" y="0px"
	 viewBox="0 0 747 748" style="enable-background:new 0 0 747 748;" xml:space="preserve">
<style type="text/css">
	.st0{fill:#A1BFE5;}
	.st1{fill:#FFFFFF;}
</style>
<circle class="st0" cx="373.5" cy="374" r="373.5"/>
<g>
	<g>
		<g>
			<path class="st1" d="M373.5,137c-5.5,0-10,4.5-10,10v59.5c0,5.5,4.5,10,10,10s10-4.5,10-10V147C383.5,141.5,379,137,373.5,137z"
				/>
		</g>
	</g>
	<g>
		<g>
			<path class="st1" d="M316.8,222.4l-23.9-23.9c-3.9-3.9-10.2-3.9-14.1,0c-3.9,3.9-3.9,10.2,0,14.1l23.9,23.9c2,2,4.5,2.9,7.1,2.9
				c2.6,0,5.1-1,7.1-2.9C320.7,232.6,320.7,226.3,316.8,222.4z"/>
		</g>
	</g>
	<g>
		<g>
			<path class="st1" d="M468.2,198.5c-3.9-3.9-10.2-3.9-14.1,0L428.7,224c-3.9,3.9-3.9,10.2,0,14.1c2,2,4.5,2.9,7.1,2.9
				c2.6,0,5.1-1,7.1-2.9l25.4-25.5C472.1,208.7,472.1,202.4,468.2,198.5z"/>
		</g>
	</g>
	<g>
		<g>
			<path class="st1" d="M564,401h-8.1c6.6-8.6,10.5-19.3,10.5-30.9v-14.1c0-28.1-22.9-50.9-50.9-50.9c-28.1,0-50.9,22.9-50.9,50.9
				v11l-75.2-75.2c-4.2-4.2-10.3-5.5-15.8-3.5c-5.5-2-11.6-0.6-15.8,3.5l-75.2,75.2v-11c0-28.1-22.9-50.9-50.9-50.9
				s-50.9,22.9-50.9,50.9v14.1c0,11.6,3.9,22.4,10.5,30.9H183c-36.1,0-65.5,29.4-65.5,65.5V599c0,5.5,4.5,10,10,10h42.3
				c1,0,2-0.2,2.9-0.4c0.9,0.3,1.9,0.4,2.9,0.4h112c5.5,0,10-4.5,10-10v-34c0-5.5-4.5-10-10-10s-10,4.5-10,10v24h-92V475.1
				c0-5.5-4.5-10-10-10s-10,4.5-10,10V589h-28V466.5c0-25.1,20.4-45.5,45.5-45.5h69.5c2.8,0,5.2-1.1,7.1-2.9c0,0,0,0,0,0
				l103.9-103.9c-0.7,20.8-7.1,40.8-18.8,58.1l-65.4,97.2c-1.1,1.7-1.7,3.6-1.7,5.6V486c0,5.5,4.5,10,10,10s10-4.5,10-10v-7.9
				l63.7-94.7c4.9-7.2,9-14.9,12.3-22.8c3.3,7.9,7.4,15.6,12.3,22.8l63.7,94.7V599c0,5.5,4.5,10,10,10h112c1,0,2-0.2,2.9-0.4
				c0.9,0.3,1.9,0.4,2.9,0.4h42.3c5.5,0,10-4.5,10-10V466.5C629.5,430.4,600.1,401,564,401z M262.4,370.1
				c0,17.1-13.9,30.9-30.9,30.9s-30.9-13.9-30.9-30.9v-14.1c0-17.1,13.9-30.9,30.9-30.9s30.9,13.9,30.9,30.9V370.1z M484.6,355.9
				c0-17.1,13.9-30.9,30.9-30.9s30.9,13.9,30.9,30.9v14.1c0,17.1-13.9,30.9-30.9,30.9s-30.9-13.9-30.9-30.9V355.9z M609.5,589
				L609.5,589h-28v-74c0-5.5-4.5-10-10-10s-10,4.5-10,10v74h-92V475.1c0-2-0.6-3.9-1.7-5.6l-65.4-97.2
				c-11.6-17.3-18.1-37.3-18.8-58.1l103.9,103.9c0.1,0.1,0.3,0.2,0.4,0.3c1.8,1.6,4.1,2.6,6.7,2.6H564c25.1,0,45.5,20.4,45.5,45.5
				V589L609.5,589z"/>
		</g>
	</g>
	<g>
		<g>
			<path class="st1" d="M578.6,468c-1.9-1.9-4.4-2.9-7.1-2.9s-5.2,1.1-7.1,2.9c-1.9,1.9-2.9,4.4-2.9,7.1s1.1,5.2,2.9,7.1
				c1.9,1.9,4.4,2.9,7.1,2.9s5.2-1.1,7.1-2.9c1.9-1.9,2.9-4.4,2.9-7.1S580.4,469.9,578.6,468z"/>
		</g>
	</g>
	<g>
		<g>
			<path class="st1" d="M294.6,520.9c-1.9-1.9-4.4-2.9-7.1-2.9s-5.2,1.1-7.1,2.9s-2.9,4.4-2.9,7.1s1.1,5.2,2.9,7.1
				c1.9,1.9,4.4,2.9,7.1,2.9s5.2-1.1,7.1-2.9c1.9-1.9,2.9-4.4,2.9-7.1S296.4,522.8,294.6,520.9z"/>
		</g>
	</g>
</g>
</svg>
