<?xml version="1.0" encoding="utf-8"?>
<!-- Generator: Adobe Illustrator 23.0.6, SVG Export Plug-In . SVG Version: 6.00 Build 0)  -->
<svg version="1.1" id="Capa_1" xmlns="http://www.w3.org/2000/svg" xmlns:xlink="http://www.w3.org/1999/xlink" x="0px" y="0px"
	 viewBox="0 0 747 748" style="enable-background:new 0 0 747 748;" xml:space="preserve">
<style type="text/css">
	.st0{fill:#A1BFE5;}
	.st1{fill:#FFFFFF;}
</style>
<circle class="st0" cx="373.5" cy="374" r="373.5"/>
<g>
	<g>
		<g>
			<path class="st1" d="M535.6,415.7h-40.2H211.4c-31.8,0-57.8,25.9-57.8,57.8s25.9,57.8,57.8,57.8h33.9l-4.4,3.5
				c-5,4.1-7.3,10.6-5.9,16.9c1.4,6.3,6.1,11.3,12.4,12.9l2.3,0.6l-11.2,43.6c-1.4,5.3,1.9,10.8,7.2,12.2l34,8.7
				c0.8,0.2,1.7,0.3,2.5,0.3c1.8,0,3.5-0.5,5.1-1.4c2.3-1.4,3.9-3.6,4.6-6.1l11.2-43.6l2.3,0.6c6.3,1.6,12.8-0.4,17.1-5.3
				c4.3-4.9,5.4-11.6,3-17.6l-10.3-25.2h180.2h40.2v0c31.8,0,57.8-25.9,57.8-57.8S567.4,415.7,535.6,415.7z M251.9,556.7
				L251.9,556.7C251.9,556.7,251.9,556.7,251.9,556.7C251.9,556.7,251.9,556.7,251.9,556.7z M299.6,557.3c-2.9-0.8-6-0.3-8.6,1.2
				c-2.6,1.5-4.4,4-5.2,6.9L275,607.8l-14.6-3.8l10.9-42.4c0.8-2.9,0.3-6-1.2-8.6c-1.5-2.6-4-4.4-6.9-5.2l-5.1-1.3l19-15.4
				l12.4-10.1l4.1,10.1l11.1,27.4L299.6,557.3z M485.4,511.3H307l-4.1-10.1c-1.2-2.9-3.7-5.1-6.8-5.9c-3.1-0.8-6.3-0.1-8.8,1.9
				l-17.4,14.1h-58.5c-20.8,0-37.8-16.9-37.8-37.8c0-20.8,16.9-37.8,37.8-37.8h273.9L485.4,511.3L485.4,511.3z M535.6,511.3h-30.2
				v-75.5h30.2c20.8,0,37.8,16.9,37.8,37.8C573.3,494.3,556.4,511.3,535.6,511.3z"/>
			<path class="st1" d="M541.4,450.6c-3.4-4.3-9.7-5.1-14-1.6c-4.3,3.4-5.1,9.7-1.6,14l6.7,8.5l-6.7,8.5c-3.4,4.3-2.7,10.6,1.6,14
				c1.8,1.5,4,2.2,6.2,2.2c3,0,5.9-1.3,7.9-3.8l11.6-14.7c2.9-3.6,2.9-8.8,0-12.4L541.4,450.6z"/>
			<path class="st1" d="M214.5,477.3c0.3,0.6,0.6,1.2,0.9,1.7c0.4,0.5,0.8,1.1,1.3,1.5c0.5,0.5,1,0.9,1.5,1.2
				c0.5,0.4,1.1,0.7,1.7,0.9c0.6,0.3,1.2,0.4,1.9,0.6c0.7,0.1,1.3,0.2,2,0.2c0.6,0,1.3-0.1,1.9-0.2c0.6-0.1,1.3-0.3,1.9-0.6
				s1.2-0.6,1.7-0.9c0.5-0.4,1.1-0.8,1.5-1.2c0.5-0.5,0.9-1,1.2-1.5c0.4-0.5,0.7-1.1,0.9-1.7c0.3-0.6,0.4-1.2,0.6-1.9
				c0.1-0.6,0.2-1.3,0.2-2c0-0.6-0.1-1.3-0.2-2c-0.1-0.6-0.3-1.3-0.6-1.9c-0.3-0.6-0.6-1.2-0.9-1.7c-0.4-0.6-0.8-1.1-1.2-1.5
				c-0.5-0.5-1-0.9-1.5-1.3c-0.5-0.4-1.1-0.7-1.7-0.9c-0.6-0.3-1.2-0.4-1.9-0.6c-3.3-0.6-6.7,0.4-9,2.7c-0.5,0.5-0.9,1-1.3,1.5
				c-0.4,0.5-0.7,1.1-0.9,1.7c-0.3,0.6-0.4,1.2-0.6,1.9c-0.1,0.6-0.2,1.3-0.2,2c0,0.6,0.1,1.3,0.2,2S214.2,476.7,214.5,477.3z"/>
			<path class="st1" d="M267.7,477.3c0.3,0.6,0.6,1.2,0.9,1.7c0.4,0.5,0.8,1.1,1.3,1.5c0.5,0.5,1,0.9,1.5,1.2
				c0.5,0.4,1.1,0.7,1.7,0.9c0.6,0.3,1.2,0.4,1.9,0.6c0.6,0.1,1.3,0.2,2,0.2c0.7,0,1.3-0.1,2-0.2c0.6-0.1,1.3-0.3,1.9-0.6
				c0.6-0.3,1.2-0.6,1.7-0.9c0.6-0.4,1.1-0.8,1.5-1.2c0.5-0.5,0.9-1,1.2-1.5c0.4-0.5,0.7-1.1,0.9-1.7c0.3-0.6,0.4-1.2,0.6-1.9
				c0.1-0.6,0.2-1.3,0.2-2c0-0.6-0.1-1.3-0.2-2c-0.1-0.6-0.3-1.3-0.6-1.9c-0.3-0.6-0.6-1.2-0.9-1.7c-0.4-0.6-0.8-1.1-1.2-1.5
				c-2.3-2.3-5.8-3.4-9-2.7c-0.6,0.1-1.3,0.3-1.9,0.6c-0.6,0.3-1.2,0.6-1.7,0.9c-0.6,0.4-1.1,0.8-1.5,1.3c-0.5,0.5-0.9,1-1.3,1.5
				c-0.4,0.5-0.7,1.1-0.9,1.7c-0.3,0.6-0.4,1.2-0.6,1.9c-0.1,0.6-0.2,1.3-0.2,2c0,0.6,0.1,1.3,0.2,2S267.4,476.7,267.7,477.3z"/>
			<path class="st1" d="M320.8,477.3c0.3,0.6,0.6,1.2,0.9,1.7c0.4,0.5,0.8,1.1,1.2,1.5c0.5,0.5,1,0.9,1.5,1.2
				c0.5,0.4,1.1,0.7,1.7,0.9c0.6,0.3,1.2,0.4,1.9,0.6c0.6,0.1,1.3,0.2,1.9,0.2s1.3-0.1,2-0.2c0.6-0.1,1.3-0.3,1.9-0.6
				c0.6-0.3,1.2-0.6,1.7-0.9c0.6-0.4,1.1-0.8,1.5-1.2c0.5-0.5,0.9-1,1.2-1.5c0.4-0.5,0.7-1.1,0.9-1.7c0.3-0.6,0.4-1.2,0.6-1.9
				c0.1-0.6,0.2-1.3,0.2-2c0-0.6-0.1-1.3-0.2-2c-0.1-0.6-0.3-1.3-0.6-1.9c-0.3-0.6-0.6-1.2-0.9-1.7c-0.4-0.6-0.8-1.1-1.2-1.5
				c-2.3-2.3-5.8-3.4-9-2.7c-0.6,0.1-1.3,0.3-1.9,0.6c-0.6,0.3-1.2,0.6-1.7,0.9c-0.5,0.4-1.1,0.8-1.5,1.3c-0.5,0.5-0.9,1-1.2,1.5
				c-0.4,0.5-0.7,1.1-0.9,1.7c-0.3,0.6-0.5,1.2-0.6,1.9c-0.1,0.6-0.2,1.3-0.2,2c0,0.6,0.1,1.3,0.2,2
				C320.4,476.1,320.6,476.7,320.8,477.3z"/>
			<path class="st1" d="M374,477.3c0.3,0.6,0.6,1.2,0.9,1.7c0.4,0.5,0.8,1.1,1.2,1.5c0.5,0.5,1,0.9,1.5,1.2c0.5,0.4,1.1,0.7,1.7,0.9
				c0.6,0.3,1.2,0.4,1.9,0.6c0.6,0.1,1.3,0.2,2,0.2s1.3-0.1,2-0.2s1.3-0.3,1.9-0.6c0.6-0.3,1.2-0.6,1.7-0.9c0.5-0.4,1.1-0.8,1.5-1.2
				c0.5-0.5,0.9-1,1.2-1.5c0.4-0.5,0.7-1.1,0.9-1.7c0.3-0.6,0.5-1.2,0.6-1.9c0.1-0.6,0.2-1.3,0.2-2c0-0.6-0.1-1.3-0.2-2
				c-0.1-0.6-0.3-1.3-0.6-1.9c-0.3-0.6-0.6-1.2-0.9-1.7c-0.4-0.6-0.8-1.1-1.2-1.5c-2.3-2.3-5.8-3.4-9-2.7c-0.6,0.1-1.3,0.3-1.9,0.6
				c-0.6,0.3-1.2,0.6-1.7,0.9c-0.5,0.4-1.1,0.8-1.5,1.3s-0.9,1-1.2,1.5c-0.4,0.5-0.7,1.1-0.9,1.7c-0.3,0.6-0.4,1.2-0.6,1.9
				c-0.1,0.6-0.2,1.3-0.2,2c0,0.6,0.1,1.3,0.2,2C373.6,476.1,373.8,476.7,374,477.3z"/>
			<path class="st1" d="M427.2,477.3c0.3,0.6,0.6,1.2,0.9,1.7c0.4,0.5,0.8,1.1,1.2,1.5c0.5,0.5,1,0.9,1.5,1.2
				c0.5,0.4,1.1,0.7,1.7,0.9c0.6,0.3,1.2,0.4,1.9,0.6c0.6,0.1,1.3,0.2,2,0.2s1.3-0.1,2-0.2c0.6-0.1,1.3-0.3,1.9-0.6
				c0.6-0.3,1.2-0.6,1.7-0.9c0.5-0.4,1.1-0.8,1.5-1.2c0.5-0.5,0.9-1,1.3-1.5c0.4-0.5,0.7-1.1,0.9-1.7c0.3-0.6,0.4-1.2,0.6-1.9
				c0.1-0.6,0.2-1.3,0.2-2c0-0.6-0.1-1.3-0.2-2c-0.1-0.6-0.3-1.3-0.6-1.9c-0.3-0.6-0.6-1.2-0.9-1.7c-0.4-0.6-0.8-1.1-1.3-1.5
				s-1-0.9-1.5-1.3c-0.5-0.4-1.1-0.7-1.7-0.9c-0.6-0.3-1.2-0.4-1.9-0.6c-1.3-0.3-2.6-0.3-3.9,0c-0.6,0.1-1.3,0.3-1.9,0.6
				c-0.6,0.3-1.2,0.6-1.7,0.9c-0.5,0.4-1.1,0.8-1.5,1.3s-0.9,1-1.2,1.5c-0.4,0.5-0.7,1.1-0.9,1.7c-0.3,0.6-0.4,1.2-0.6,1.9
				c-0.1,0.6-0.2,1.3-0.2,2c0,0.6,0.1,1.3,0.2,2S427,476.7,427.2,477.3z"/>
			<path class="st1" d="M285.8,370.8c0.2,0.2,0.5,0.5,0.8,0.7c23,17.8,50.1,27.8,78.9,29.3c0.2,0,0.4,0,0.6,0c0.9,0,1.8,0.1,2.7,0.1
				c0.3,0,0.5,0,0.8,0c1.1,0,2.3,0,3.4,0c1.1,0,2.3,0,3.4,0c0.3,0,0.5,0,0.8,0c0.9,0,1.9-0.1,2.8-0.1c0.2,0,0.4,0,0.5,0
				c29.3-1.5,56.8-11.8,80-30.1c0.3-0.3,0.6-0.5,0.9-0.8c32.3-26,53.1-65.8,53.1-110.4c0-78-63.5-141.5-141.5-141.5
				s-141.5,63.5-141.5,141.5C231.5,304.6,252.8,344.8,285.8,370.8z M386,380.3c-0.6,0.1-1.2,0.1-1.9,0.2c-0.7,0.1-1.4,0.1-2.1,0.2
				c-1.2,0.1-2.4,0.2-3.6,0.2c-0.4,0-0.8,0-1.2,0c-1.4,0-2.8,0.1-4.2,0.1c-1.4,0-2.8,0-4.2-0.1c-0.4,0-0.8,0-1.2,0
				c-1.2,0-2.3-0.1-3.4-0.2c-0.7,0-1.3-0.1-2-0.2c-0.7-0.1-1.4-0.1-2.2-0.2c-0.8-0.1-1.6-0.2-2.4-0.3c-0.1,0-0.3,0-0.4-0.1
				c-20.2-2.6-38.8-10.2-54.6-21.5v-18.1c0-23.8,11.8-44.9,29.9-57.8c11.3,8.8,25.5,14.1,40.9,14.1c15.4,0,29.6-5.3,40.9-14.1
				c18.1,12.9,29.9,34,29.9,57.8v17.4h0C427.6,369.9,407.7,377.9,386,380.3z M373,138c67,0,121.5,54.5,121.5,121.5
				c0,30.6-11.4,58.6-30.2,80c-0.3-29.2-14.4-55.1-36.1-71.6c7.5-10.8,11.8-23.8,11.8-37.8c0-3.3-0.2-6.6-0.7-9.9
				c-0.8-5.5-5.9-9.2-11.4-8.4c-5.5,0.8-9.2,5.9-8.4,11.4c0.3,2.3,0.5,4.6,0.5,6.9c0,10.3-3.4,19.8-9,27.6
				c-4.6,6.3-10.7,11.3-17.9,14.7c-6,2.8-12.7,4.4-19.7,4.4s-13.7-1.6-19.7-4.4c-7.1-3.3-13.2-8.4-17.9-14.7c-5.7-7.7-9-17.3-9-27.6
				c0-25.7,20.9-46.6,46.6-46.6c3.5,0,7.1,0.4,10.5,1.2c5.4,1.2,10.7-2.1,12-7.5c1.2-5.4-2.1-10.7-7.5-12c-4.9-1.1-9.9-1.7-14.9-1.7
				c-36.7,0-66.6,29.9-66.6,66.6c0,14,4.4,27.1,11.8,37.8c-21.9,16.6-36.1,42.9-36.1,72.4v0.2c-19.3-21.5-31.1-49.9-31.1-81.1
				C251.5,192.5,306,138,373,138z"/>
			<path class="st1" d="M405.8,195.4c0.3,0.6,0.6,1.2,0.9,1.7c0.4,0.6,0.8,1.1,1.2,1.5c0.5,0.5,1,0.9,1.5,1.3
				c0.5,0.4,1.1,0.7,1.7,0.9c0.6,0.3,1.2,0.4,1.9,0.6c0.6,0.1,1.3,0.2,2,0.2s1.3-0.1,2-0.2c0.6-0.1,1.3-0.3,1.9-0.6
				c0.6-0.3,1.2-0.6,1.7-0.9c0.5-0.4,1.1-0.8,1.5-1.3c0.5-0.5,0.9-1,1.2-1.5c0.4-0.5,0.7-1.1,0.9-1.7c0.3-0.6,0.5-1.2,0.6-1.9
				c0.1-0.6,0.2-1.3,0.2-2c0-0.7-0.1-1.3-0.2-2c-0.1-0.6-0.3-1.3-0.6-1.9s-0.6-1.2-0.9-1.7c-0.4-0.6-0.8-1.1-1.2-1.5
				c-0.5-0.5-1-0.9-1.5-1.2c-0.5-0.4-1.1-0.7-1.7-0.9c-0.6-0.3-1.2-0.4-1.9-0.6c-1.3-0.3-2.6-0.3-3.9,0c-0.6,0.1-1.3,0.3-1.9,0.6
				c-0.6,0.3-1.2,0.6-1.7,0.9c-0.5,0.4-1.1,0.8-1.5,1.2s-0.9,1-1.2,1.5c-0.4,0.5-0.7,1.1-0.9,1.7s-0.4,1.2-0.6,1.9
				c-0.1,0.6-0.2,1.3-0.2,2c0,0.7,0.1,1.3,0.2,2C405.3,194.1,405.5,194.8,405.8,195.4z"/>
		</g>
	</g>
</g>
</svg>
