<?xml version="1.0" encoding="utf-8"?>
<!-- Generator: Adobe Illustrator 23.0.6, SVG Export Plug-In . SVG Version: 6.00 Build 0)  -->
<svg version="1.1" id="Capa_1" xmlns="http://www.w3.org/2000/svg" xmlns:xlink="http://www.w3.org/1999/xlink" x="0px" y="0px"
	 viewBox="0 0 747 748" style="enable-background:new 0 0 747 748;" xml:space="preserve">
<style type="text/css">
	.st0{fill:#A1BFE5;}
	.st1{fill:#FFFFFF;}
</style>
<circle class="st0" cx="373.5" cy="374" r="373.5"/>
<g>
	<g>
		<g>
			<path class="st1" d="M511.6,294.4c4.1,0,7.4-3.3,7.4-7.4v-80.7c0-12.3-10-22.3-22.3-22.3H226.6c-12.3,0-22.3,10-22.3,22.3v335.5
				c0,12.3,10,22.3,22.3,22.3h270.2c12.3,0,22.3-10,22.3-22.3v-54.7c0-4.1-3.3-7.4-7.4-7.4c-4.1,0-7.4,3.3-7.4,7.4v54.7
				c0,4.1-3.3,7.4-7.4,7.4H226.6c-4.1,0-7.4-3.3-7.4-7.4V206.3c0-4.1,3.3-7.4,7.4-7.4h270.2c4.1,0,7.4,3.3,7.4,7.4V287
				C504.1,291.1,507.5,294.4,511.6,294.4z"/>
		</g>
	</g>
	<g>
		<g>
			<path class="st1" d="M361.6,224.1c-37.7,0-68.3,30.6-68.3,68.3c0,19.5,8.2,37.2,21.4,49.6c0.2,0.3,0.5,0.5,0.8,0.7
				c12.2,11.1,28.3,17.9,46,17.9s33.9-6.8,46-17.9c0.3-0.2,0.5-0.5,0.8-0.7c13.2-12.5,21.4-30.1,21.4-49.6
				C429.9,254.7,399.3,224.1,361.6,224.1z M361.6,345.8c-12.1,0-23.3-4.1-32.3-10.9c6.5-11.6,18.7-18.8,32.3-18.8
				c13.6,0,25.8,7.2,32.3,18.8C384.9,341.7,373.8,345.8,361.6,345.8z M349.8,289.4v-4.8c0-6.5,5.3-11.9,11.9-11.9
				c6.5,0,11.9,5.3,11.9,11.9v4.8c0,6.5-5.3,11.9-11.9,11.9C355.1,301.3,349.8,295.9,349.8,289.4z M404.6,324
				c-5.5-8.1-13.1-14.4-21.9-18.3c3.5-4.5,5.6-10.2,5.6-16.3v-4.8c0-14.7-12-26.7-26.7-26.7s-26.7,12-26.7,26.7v4.8
				c0,6.1,2.1,11.8,5.6,16.3c-8.8,3.9-16.4,10.2-21.9,18.3c-6.6-8.9-10.4-19.8-10.4-31.7c0-29.5,24-53.4,53.4-53.4
				s53.4,24,53.4,53.4C415.1,304.2,411.2,315.2,404.6,324z"/>
		</g>
	</g>
	<g>
		<g>
			<path class="st1" d="M401.7,509.1h-40.1c-4.1,0-7.4,3.3-7.4,7.4s3.3,7.4,7.4,7.4h40.1c4.1,0,7.4-3.3,7.4-7.4
				S405.8,509.1,401.7,509.1z"/>
		</g>
	</g>
	<g>
		<g>
			<path class="st1" d="M401.7,467.5H296.3c-4.1,0-7.4,3.3-7.4,7.4s3.3,7.4,7.4,7.4h105.4c4.1,0,7.4-3.3,7.4-7.4
				S405.8,467.5,401.7,467.5z"/>
		</g>
	</g>
	<g>
		<g>
			<path class="st1" d="M401.7,426H296.3c-4.1,0-7.4,3.3-7.4,7.4s3.3,7.4,7.4,7.4h105.4c4.1,0,7.4-3.3,7.4-7.4S405.8,426,401.7,426z
				"/>
		</g>
	</g>
	<g>
		<g>
			<path class="st1" d="M269.9,386.6c-1.4-1.4-3.3-2.2-5.3-2.2c-2,0-3.9,0.8-5.2,2.2c-1.4,1.4-2.2,3.3-2.2,5.2s0.8,3.9,2.2,5.2
				c1.4,1.4,3.3,2.2,5.2,2.2c2,0,3.9-0.8,5.3-2.2c1.4-1.4,2.2-3.3,2.2-5.2S271.3,387.9,269.9,386.6z"/>
		</g>
	</g>
	<g>
		<g>
			<path class="st1" d="M269.9,428.1c-1.4-1.4-3.3-2.2-5.3-2.2c-2,0-3.9,0.8-5.2,2.2c-1.4,1.4-2.2,3.3-2.2,5.2s0.8,3.9,2.2,5.2
				c1.4,1.4,3.3,2.2,5.2,2.2c2,0,3.9-0.8,5.3-2.2c1.4-1.4,2.2-3.3,2.2-5.2S271.3,429.5,269.9,428.1z"/>
		</g>
	</g>
	<g>
		<g>
			<path class="st1" d="M269.9,469.7c-1.4-1.4-3.3-2.2-5.3-2.2c-2,0-3.9,0.8-5.2,2.2c-1.4,1.4-2.2,3.3-2.2,5.2s0.8,3.9,2.2,5.2
				c1.4,1.4,3.3,2.2,5.2,2.2c2,0,3.9-0.8,5.3-2.2c1.4-1.4,2.2-3.3,2.2-5.2S271.3,471.1,269.9,469.7z"/>
		</g>
	</g>
	<g>
		<g>
			<path class="st1" d="M401.7,384.4H296.3c-4.1,0-7.4,3.3-7.4,7.4s3.3,7.4,7.4,7.4h105.4c4.1,0,7.4-3.3,7.4-7.4
				S405.8,384.4,401.7,384.4z"/>
		</g>
	</g>
	<g>
		<g>
			<path class="st1" d="M568.7,280.7c-7.2-4.2-15.6-5.3-23.7-3.1c-8,2.2-14.8,7.3-18.9,14.5l-93.4,161.8c-0.5,0.9-0.8,1.9-0.9,2.9
				l-6.6,58.9c-0.3,2.9,1.1,5.8,3.7,7.3c1.2,0.7,2.4,1,3.7,1c1.6,0,3.1-0.5,4.4-1.4l47.7-35.1c0.8-0.6,1.5-1.4,2-2.3l93.4-161.8
				C588.7,308.4,583.6,289.3,568.7,280.7z M441.8,500.5l3.4-30.8l21.5,12.4L441.8,500.5z M477.6,471.2l-28.3-16.3l74.9-129.8
				l28.3,16.3L477.6,471.2z M567.3,315.9l-7.3,12.7l-28.3-16.3l7.3-12.7c2.2-3.8,5.7-6.5,9.9-7.6c4.2-1.1,8.6-0.5,12.4,1.6
				c3.8,2.2,6.5,5.7,7.6,9.9C570,307.7,569.4,312.1,567.3,315.9z"/>
		</g>
	</g>
</g>
</svg>
