<svg id="Layer_1" data-name="Layer 1" xmlns="http://www.w3.org/2000/svg" viewBox="0 0 358.71 133.17"><defs><style>.cls-1{fill:none;}</style></defs><title>LindoF_Logo</title><path class="cls-1" d="M49,130.72c0,3.33,2.85,6.41,8.43,6.41,7.6,0,14.61-3.08,20.79-11.88a52.9,52.9,0,0,0-17.46-3.08C53.06,122.17,49,126.68,49,130.72Z" transform="translate(-31.32 -7.41)"/><path class="cls-1" d="M215.89,90.51a5.33,5.33,0,0,0-2.49-1.17A4.69,4.69,0,0,0,210,90.8a19.37,19.37,0,0,0-3.44,4.1c-.07.1-.12.22-.18.32a7.8,7.8,0,0,1-.11,2.39,16.12,16.12,0,0,1-1.32,3.87c-.29.49-.95,1.64-2,3.44-.14.25-.3.5-.45.75s-.06.43-.07.64a14,14,0,0,0,.44,5.56,3.26,3.26,0,0,0,3.22,2.34c1.76.1,3.56-.83,5.42-2.78a38.32,38.32,0,0,0,5.41-7.61,42.06,42.06,0,0,1-.95-6.58A60.47,60.47,0,0,1,215.89,90.51Z" transform="translate(-31.32 -7.41)"/><path class="cls-1" d="M226.64,82c.83-2.24,1.51-4.27,2.05-6.07s.95-3.19,1.24-4.17a55.92,55.92,0,0,0,1.61-6.88c.49-2.73.9-5.39,1.25-8s.56-4.77.65-6.58,0-2.76-.29-2.85-.78.14-1.46.73a11.93,11.93,0,0,0-2.34,3.44,63.63,63.63,0,0,0-3,7.17,109.83,109.83,0,0,0-3.44,12.07,100.09,100.09,0,0,0-2.27,13.46A73.49,73.49,0,0,0,220.42,97l.15-.15q1.76-3.66,3.29-7.54C224.89,86.68,225.81,84.27,226.64,82Z" transform="translate(-31.32 -7.41)"/><path class="cls-1" d="M131.58,28.91c0-10.45-3.21-17.93-9.27-17.93-8.19,0-16.51,8.43-21.86,59.51-.71,6.3-1.54,11.88-2.49,17.11C121.24,75.72,131.58,47.56,131.58,28.91Z" transform="translate(-31.32 -7.41)"/><path d="M158.67,96.8c-.1-1-.39-1.46-.88-1.46-.19,0-.46.36-.8,1.09s-.71,1.49-1.1,2.27a1.27,1.27,0,0,1-1.15.59l-.46.8a48.62,48.62,0,0,1-4.31,6.29,33.2,33.2,0,0,1-5.2,5.2,10,10,0,0,1-5.71,2.34,5.79,5.79,0,0,1-4.39-1.32,7.37,7.37,0,0,1-2.19-3.66,19,19,0,0,1-.59-4.9,40,40,0,0,1,.3-5.05q.28-2.34.66-4t.36-1.83a1.74,1.74,0,0,0-.73-1.53A3.27,3.27,0,0,0,130.8,91a3.34,3.34,0,0,0-1.83.37,2.76,2.76,0,0,0-1.32,1.46c-.2,1.37-.39,2.68-.58,4-.2,1.07-.37,2.17-.52,3.29s-.27,2-.36,2.56a17.14,17.14,0,0,0,.14,3.66,17.45,17.45,0,0,0,1.61,5.42,14.76,14.76,0,0,0,3.81,4.9,10.05,10.05,0,0,0,6.73,2.12,12.08,12.08,0,0,0,7.32-2.49,32.65,32.65,0,0,0,5.92-5.63,43.21,43.21,0,0,0,4.17-6c1.07-1.9,1.76-3.1,2.05-3.59s.52-1.18.71-1.73A14.14,14.14,0,0,0,158.67,96.8Z" transform="translate(-31.32 -7.41)"/><path d="M127.65,78.14A9.25,9.25,0,0,0,126.48,81a6.87,6.87,0,0,0,.51,2.48,3.18,3.18,0,0,0,2.56,1.76,3.63,3.63,0,0,0,2.78-.73A3.35,3.35,0,0,0,134.09,82a14.43,14.43,0,0,0-.44-3.29,2.87,2.87,0,0,0-2.78-2.13l.15-.14A3.29,3.29,0,0,0,127.65,78.14Z" transform="translate(-31.32 -7.41)"/><path d="M197,106.75l0-.24a25.14,25.14,0,0,1-5.3,4.85,9.44,9.44,0,0,1-6.29,1.68,5.27,5.27,0,0,1-4.24-1.9,9.19,9.19,0,0,1-1.69-4.24,19.87,19.87,0,0,1,0-5.34c.25-1.91.51-3.73.81-5.49s.51-3.27.66-4.54,0-2.1-.37-2.49a5.54,5.54,0,0,0-3.73-2.19q-2-.15-3,2.34-.58,1.17-1.9,4.68t-2.93,7.25c-1.07,2.49-2.1,4.68-3.07,6.58s-1.76,2.81-2.34,2.71c-.78-.19-1.15-.93-1.1-2.2s.17-2.78.37-4.53.34-3.61.43-5.56a12.92,12.92,0,0,0-.73-5.27,5.75,5.75,0,0,0-1.75-2.64,3.59,3.59,0,0,0-2.05-.73,3.33,3.33,0,0,0-1.9.59,4.68,4.68,0,0,0-1.47,1.61,13.28,13.28,0,0,0-1.61,4,6.61,6.61,0,0,0-.07,2.56,1.23,1.23,0,0,0,.88,1h.09a1.27,1.27,0,0,0,1.15-.59c.39-.78.76-1.53,1.1-2.27s.61-1.09.8-1.09c.49,0,.78.48.88,1.46a14.14,14.14,0,0,1,0,2.51c0,.41-.07.84-.13,1.29-.09,1.47-.24,3.08-.43,4.83a24.6,24.6,0,0,0-.08,5,10.78,10.78,0,0,0,1.1,4,3.43,3.43,0,0,0,3.07,1.83,5.51,5.51,0,0,0,4.83-2.63,31,31,0,0,0,3.51-6.15,63.91,63.91,0,0,0,2.35-6.14c.58-1.86,1-2.73,1.31-2.64s.59.64.59,1.61v3.51c0,1.37.07,2.86.22,4.46a11.48,11.48,0,0,0,1.31,4.47,9.51,9.51,0,0,0,3.22,3.44,11.61,11.61,0,0,0,5.93,1.53,12.82,12.82,0,0,0,7.53-2,26.84,26.84,0,0,0,4.41-3.5A15.69,15.69,0,0,1,197,106.75Z" transform="translate(-31.32 -7.41)"/><path d="M204.91,101.48a16.12,16.12,0,0,0,1.32-3.87,7.8,7.8,0,0,0,.11-2.39,29.41,29.41,0,0,0-2.6,5.24,19.59,19.59,0,0,0-1.25,5.21c.15-.25.31-.5.45-.75C204,103.12,204.62,102,204.91,101.48Z" transform="translate(-31.32 -7.41)"/><path d="M241.73,106.2c-.08.11-.15.22-.24.33a27.34,27.34,0,0,1-5.41,5.26,8.65,8.65,0,0,1-6,1.84v-.15a7,7,0,0,1-4.9-2.71,18.21,18.21,0,0,1-3.15-6.23,66.57,66.57,0,0,0,3.29-6.24c1-2.19,1.93-4.37,2.71-6.52q3.08-8.36,5.85-17.08A127.07,127.07,0,0,0,238,58.64a40.48,40.48,0,0,0,.66-12.24c-.44-3.27-1.88-5.06-4.32-5.35q-3.07-.44-5.92,3.22a37.47,37.47,0,0,0-5.2,9.88,103.47,103.47,0,0,0-4.09,14.19,146.7,146.7,0,0,0-2.64,16.31,3.38,3.38,0,0,0-1.76-.43,9.52,9.52,0,0,0-4.38,1.09,20.54,20.54,0,0,0-5.64,4,25.76,25.76,0,0,0-5.05,7,27.14,27.14,0,0,0-2.6,10.22l0,.24a15.69,15.69,0,0,0,.38,5.43,5.94,5.94,0,0,0,.21.72,8.79,8.79,0,0,0,2.26,3.58,7.4,7.4,0,0,0,3,1.68,10.55,10.55,0,0,0,2.78.44,9.58,9.58,0,0,0,6.73-2.27,30.55,30.55,0,0,0,6.3-6.65,16.44,16.44,0,0,0,4.31,6.14,11.87,11.87,0,0,0,14.2.58,29.74,29.74,0,0,0,5.21-4.53,16.55,16.55,0,0,1-.53-2.34A13.7,13.7,0,0,1,241.73,106.2Zm-30.23,5.23c-1.86,1.95-3.66,2.88-5.42,2.78a3.26,3.26,0,0,1-3.22-2.34,14,14,0,0,1-.44-5.56c0-.21.05-.43.07-.64a19.59,19.59,0,0,1,1.25-5.21,29.41,29.41,0,0,1,2.6-5.24c.06-.1.11-.22.18-.32A19.37,19.37,0,0,1,210,90.8a4.69,4.69,0,0,1,3.44-1.46,5.33,5.33,0,0,1,2.49,1.17,60.47,60.47,0,0,0,.07,6.73,42.06,42.06,0,0,0,.95,6.58A38.32,38.32,0,0,1,211.5,111.43Zm9.07-14.63-.15.15a73.49,73.49,0,0,1,.22-12.59,100.09,100.09,0,0,1,2.27-13.46,109.83,109.83,0,0,1,3.44-12.07,63.63,63.63,0,0,1,3-7.17,11.93,11.93,0,0,1,2.34-3.44c.68-.59,1.17-.83,1.46-.73s.39,1,.29,2.85-.31,4-.65,6.58-.76,5.25-1.25,8a55.92,55.92,0,0,1-1.61,6.88c-.29,1-.71,2.36-1.24,4.17s-1.22,3.83-2.05,6.07-1.75,4.66-2.78,7.24S221.74,94.36,220.57,96.8Z" transform="translate(-31.32 -7.41)"/><path d="M388.26,32a10.11,10.11,0,0,0-4.83-1.32q-10.4-.43-17-.51t-12,.14q-5.42.23-11.19.66T328.7,32.27c-.2-1.85-.83-2.83-1.9-2.93a1.65,1.65,0,0,0-1.68.81,8.44,8.44,0,0,0-1.1,2.41q-8.79.88-14.42,1.32l-9.43.73c-2.54.2-4.61.34-6.22.44s-3.2.14-4.76.14h-3c-.92,0-1.48.64-1.68,1.91q-.43,4.24,18.29,2.78l8.71-.74q5.34-.44,11.48-.87a3.44,3.44,0,0,0-.14,1v.59q-.74,8.77-1.32,15.95c-.2,2.05-.39,4.1-.59,6.14s-.36,3.93-.51,5.64-.29,3.19-.44,4.46-.22,2.1-.22,2.49l-.14,1.32c-3.13.19-5.61.39-7.47.58s-3.58.42-5.19.66-3.27.51-5,.8-3.87.64-6.51,1a4.46,4.46,0,0,0-2,.66c-.54.34-.71,1-.51,2.12s1,1.7,2.41,1.61,3-.24,4.9-.44c.68-.1,1.76-.22,3.22-.37s3.1-.29,4.9-.44l5.56-.43c1.91-.15,3.64-.27,5.2-.37q-.15,4.09-.29,10t-.44,13.83q-.3,6.3.88,9.58a11.44,11.44,0,0,0,2.7,4.69A4.49,4.49,0,0,0,325,120.8a3.7,3.7,0,0,0,1.83-.3,1.16,1.16,0,0,0,.29-1.53,12,12,0,0,1-.73-2.12c-.29-2.15-.54-4-.73-5.64s-.32-3.19-.37-4.75-.05-3.25,0-5,.17-4,.37-6.51c0-1.17.05-3.05.14-5.64s.25-5.34.44-8.26c2.25-.1,4.83-.17,7.76-.22s5.7-.12,8.34-.22q4.68-.15,9.51-.15a25.11,25.11,0,0,0,3.07-.15,9.68,9.68,0,0,0,2.2-.51c.68-.24,1-.6,1-1.1A1.87,1.87,0,0,0,357,76.9a9.39,9.39,0,0,0-2.56-.88,21,21,0,0,0-3.65-.29c-2.64-.2-5.05-.32-7.25-.37s-4.75-.07-7.68-.07-6.1,0-9.51.15q.28-5.41.8-11.56t1-11.42q.44-5.26.73-8.85c.19-2.39.29-3.63.29-3.73s-.12-.34-.07-.74a14.09,14.09,0,0,0,.07-1.46q9.36-.57,18.14-1.09t13.9-.52h21.95a12.89,12.89,0,0,0,3.37.15,6.76,6.76,0,0,0,2.34-.37c.68-.24,1.07-.6,1.17-1.09A3,3,0,0,0,388.26,32Z" transform="translate(-31.32 -7.41)"/><path d="M123.38,135.59c-13.66,0-24-7.25-37.66-12.12,4.52-7.13,8.44-16.87,11.29-30.76,27.44-11,40.75-41,40.75-62.25,0-13.19-5.23-23-15.33-23-13.42,0-23.05,9.74-28.87,63.08-.83,7.72-1.78,14.5-3,20.55a54.53,54.53,0,0,1-17,2.62C48,93.66,37,78.57,37,64.67,37,52,45.93,40,61,40a16.46,16.46,0,0,1,9.39,2.38c.95-1.9,2-3.81,3-5.82A23.58,23.58,0,0,0,61,33.43C42.48,33.43,31.32,48.51,31.32,64c0,16.39,12.59,33.26,42.29,33.26a63.05,63.05,0,0,0,16.15-2.14c-2.49,11.76-5.7,20.32-9.5,26.49a67.46,67.46,0,0,0-20-2.85c-11.28,0-16.63,6.06-16.63,11.76,0,6.53,5.47,10.1,12.83,10.1,9.38,0,18.77-3.09,26.61-13.19,13.42,5.35,25.54,13.19,40.39,13.19,11.76,0,17.94-6.53,19.72-14.26-2-.59-4-1.07-6.06-1.54C136.33,129.05,133.12,135.59,123.38,135.59Zm-22.93-65.1C105.8,19.41,114.12,11,122.31,11c6.06,0,9.27,7.48,9.27,17.93,0,18.65-10.34,46.81-33.62,58.69C98.91,82.37,99.74,76.79,100.45,70.49Zm-43,66.64c-5.58,0-8.43-3.08-8.43-6.41,0-4,4-8.55,11.76-8.55a52.9,52.9,0,0,1,17.46,3.08C72.06,134.05,65.05,137.13,57.45,137.13Z" transform="translate(-31.32 -7.41)"/><path d="M268.77,87.69a10.13,10.13,0,0,1-3.69,3.77,15.35,15.35,0,0,0-2.23-5.2,9.18,9.18,0,0,0-3.14-2.92,5.63,5.63,0,0,0-3.15-.74A7.35,7.35,0,0,0,252,84.43a7.16,7.16,0,0,0-2,3.74,11.27,11.27,0,0,0-1.47.58,4.69,4.69,0,0,0-1.31,1.17,25.46,25.46,0,0,0-2.93,5c-1.07,2.24-1.9,5.76-2.49,10.53,0,.24,0,.52-.05.77a13.7,13.7,0,0,0,.13,3.33,16.55,16.55,0,0,0,.53,2.34,15.82,15.82,0,0,0,.78,2.12,10.54,10.54,0,0,0,2.71,3.66,7,7,0,0,0,4.39,1.69,10.42,10.42,0,0,0,8.85-3.45,24.22,24.22,0,0,0,4.91-8.7l1.17-4.83q.14-.73.21-1.32a10.12,10.12,0,0,0,.08-1.31,33,33,0,0,0,.13-3.64,14.28,14.28,0,0,0,7-6.15C274.11,87.47,270.26,85.23,268.77,87.69Zm-13,.32c2.35-1,3.21.55,3.21.55,1.06,1.06,1.45,3.39,1.56,4.3-2.39.33-5.32.22-7-1,.68-1.46,1-2.07,1-2.07Zm4,18.13c-2.42,7.24-4.4,7.36-4.4,7.36-4.45,3.41-6.68-.24-6.68-.24-2-1.43-1.55-7-1.55-7,3.41-6.12,4.1-9.34,4.23-10.44,2.65,1.79,6.34,1.77,9.53,1.4A26.3,26.3,0,0,1,259.76,106.14Z" transform="translate(-31.32 -7.41)"/><path d="M268.82,87.71l-.74,1.12c-.13.18-.28.34-.42.52l-.44.51c-.14.17-.32.31-.48.47l-.5.45c-.36.26-.74.51-1.11.76l-.1.07,0-.13-.41-1.35c-.14-.44-.33-.87-.49-1.31s-.41-.84-.61-1.26-.49-.79-.73-1.19-.58-.75-.89-1.09a9.85,9.85,0,0,0-1-.94,6.58,6.58,0,0,0-1.14-.78,6.7,6.7,0,0,0-1.28-.51,4.55,4.55,0,0,0-1.32-.21,4.65,4.65,0,0,0-.66,0l-.69.12a7,7,0,0,0-.69.14l-.64.21a5.32,5.32,0,0,0-1.21.56,2.29,2.29,0,0,0-.54.38l-.48.41a7,7,0,0,0-.84,1.1l-.32.55-.25.62a8.11,8.11,0,0,0-.36,1.28l-.08.25-.23.1-.8.34-.4.17-.1,0-.05,0h0s.09-.06,0,0l-.19.13-.36.27a2.38,2.38,0,0,0-.27.29l-.26.29s-.12.12-.1.12l-.12.19-1,1.52a16.76,16.76,0,0,0-.82,1.57l-.78,1.58-.62,1.65c-.21.57-.3,1.13-.45,1.69s-.29,1.12-.39,1.71c-.23,1.17-.46,2.34-.59,3.53l-.24,1.77,0,.46,0,.23v.11h0s0-.14,0-.06v.08l0,.91a10.23,10.23,0,0,0,.12,1.7l0,.41v0h0l0,.11.05.22.21.88.21.88,0,.11v.09c-.07-.22,0-.06,0-.1h0l.08.21.16.43.33.84.16.43,0,.1,0,.06h0l0-.08,0,0,.1.2.41.81.43.66a6.24,6.24,0,0,0,.5.65,4.13,4.13,0,0,0,.56.62l.3.29.14.15h0s-.1-.08,0,0l0,0,0,0,.1.07.72.54a6.54,6.54,0,0,0,1.4.59,7.67,7.67,0,0,0,1.6.3,16.45,16.45,0,0,0,1.72,0,10.16,10.16,0,0,0,3.25-.73,9.11,9.11,0,0,0,2.81-1.8c.19-.19.43-.41.58-.57l.58-.7c.37-.47.81-.92,1.13-1.41l1-1.45a16.53,16.53,0,0,0,.85-1.55,26.91,26.91,0,0,0,1.43-3.25v0l1-3.68.25-.92.05-.21,0-.23.09-.47.09-.47a4.17,4.17,0,0,0,.05-.44l.07-1h0l.21-3.6V96l.12,0,.94-.4c.3-.14.59-.31.89-.47s.57-.36.86-.54a8.17,8.17,0,0,0,.81-.61,6.88,6.88,0,0,0,.77-.66,8.15,8.15,0,0,0,.72-.72c.22-.25.47-.49.67-.76l.63-.81.56-.85a2,2,0,0,0,.25-.43,1.21,1.21,0,0,0,.16-.46,1.84,1.84,0,0,0,0-1,2.11,2.11,0,0,0-.53-.82,2.57,2.57,0,0,0-.82-.55,2.3,2.3,0,0,0-1-.15,2,2,0,0,0-.94.29c-.14.09-.26.21-.39.31Zm-.09,0,.32-.42a3.19,3.19,0,0,1,.4-.33,2,2,0,0,1,1-.32,2.41,2.41,0,0,1,1,.15,3,3,0,0,1,.87.57,2.39,2.39,0,0,1,.57.87,2.08,2.08,0,0,1,0,1,1.89,1.89,0,0,1-.17.49,2.85,2.85,0,0,1-.25.45L272,91l-.62.82c-.21.27-.45.52-.67.78a10.05,10.05,0,0,1-.73.73,7.07,7.07,0,0,1-.77.68,13.67,13.67,0,0,1-1.69,1.18,14.36,14.36,0,0,1-1.84.92l0-.06-.13,3.64h0l-.06,1a2.67,2.67,0,0,1,0,.48l-.07.47c-.06.32-.09.63-.17.94l-.23.93-.89,3.7h0a30.77,30.77,0,0,1-1.38,3.36c-.29.54-.51,1.11-.84,1.62l-1,1.54c-.32.51-.73,1-1.1,1.44l-.56.71c-.21.24-.43.44-.64.66a9.46,9.46,0,0,1-3,2,10.82,10.82,0,0,1-3.55.83,15.76,15.76,0,0,1-1.82,0,9.18,9.18,0,0,1-1.8-.32,7.38,7.38,0,0,1-1.69-.71,9.23,9.23,0,0,1-1.42-1.16,10.32,10.32,0,0,1-2.11-3c-.27-.56-.43-1.13-.66-1.7a10,10,0,0,1-.49-1.76,13.73,13.73,0,0,1-.44-3.61c0-.59,0-1.22.09-1.82l.26-1.79c.15-1.21.39-2.39.63-3.58a15.25,15.25,0,0,1,.44-1.77,17.4,17.4,0,0,1,.52-1.74l.67-1.69.85-1.61a15.41,15.41,0,0,1,.89-1.59l1-1.5a4,4,0,0,1,.6-.7,3,3,0,0,1,.7-.58,13.06,13.06,0,0,1,1.67-.74l0,.06a9.33,9.33,0,0,1,.43-1.36l.28-.66c.12-.2.25-.4.38-.6a8,8,0,0,1,.88-1.11c.19-.17.38-.3.56-.46a2.56,2.56,0,0,1,.59-.4,6.3,6.3,0,0,1,1.31-.56,6.76,6.76,0,0,1,1.38-.33,6.64,6.64,0,0,1,1.42-.14,5.17,5.17,0,0,1,1.4.26,6.85,6.85,0,0,1,1.31.55,7.71,7.71,0,0,1,1.17.82,9.45,9.45,0,0,1,1,1c.32.36.59.74.89,1.11s.51.8.73,1.21.44.85.6,1.29.35.88.49,1.33l.39,1.36-.08,0,1.1-.74.5-.44c.16-.15.34-.29.48-.45l.43-.51c.14-.17.3-.32.43-.5Z" transform="translate(-31.32 -7.41)"/><path d="M255.78,88c.27-.14.52-.31.8-.43l.48-.12a1.49,1.49,0,0,1,.51-.06,1.83,1.83,0,0,1,.52,0,1.93,1.93,0,0,1,.52.15,2.55,2.55,0,0,1,.48.29,2.1,2.1,0,0,1,.44.45l-.1-.13.49.5.37.56a7,7,0,0,1,.54,1.15,10.85,10.85,0,0,1,.37,1.19,10,10,0,0,1,.24,1.21l.12.85-.87.12q-.94.13-1.89.18l-1,0c-.32,0-.64,0-1-.08a7.71,7.71,0,0,1-1-.17c-.32-.06-.64-.19-1-.28a5.88,5.88,0,0,1-.92-.43,2.49,2.49,0,0,1-.43-.29l-.42-.31-.47-.35.27-.44.6-1c.21-.32.39-.64.62-.94l.09-.14.1-.1.19-.2.38-.41c.24-.28.51-.54.78-.8h0Zm.05.09-.61.9-.3.46a4.53,4.53,0,0,0-.3.46l-1,2,0-.09L254,92a1.76,1.76,0,0,0,.38.21,6.45,6.45,0,0,0,.83.32,8.48,8.48,0,0,0,.87.21c.3,0,.59.11.89.13s.59,0,.89,0,.6,0,.9,0c.6,0,1.19-.07,1.79-.14l-.08.1a13.23,13.23,0,0,0-.47-2.25,6.94,6.94,0,0,0-.41-1.07l-.28-.5-.35-.44h0a1.43,1.43,0,0,0-.28-.32,2,2,0,0,0-.34-.26,2.83,2.83,0,0,0-.4-.17,1.2,1.2,0,0,0-.42-.08,2.76,2.76,0,0,0-.86,0C256.38,87.87,256.11,88,255.83,88.05Z" transform="translate(-31.32 -7.41)"/><path d="M259.8,106.16l-.72,2.07c-.11.35-.27.68-.41,1l-.44,1c-.15.33-.35.65-.52,1a5.47,5.47,0,0,1-.59.94l-.32.46-.38.42a2.36,2.36,0,0,1-.44.39,1.35,1.35,0,0,1-.6.3l.14-.05-.78.59c-.28.17-.56.35-.86.51a5.93,5.93,0,0,1-.94.37,4.29,4.29,0,0,1-1,.2,3.87,3.87,0,0,1-1.07-.06,3.71,3.71,0,0,1-1-.34,4.17,4.17,0,0,1-.91-.59,3.37,3.37,0,0,1-.39-.37,3.42,3.42,0,0,1-.37-.44l.16.18-.46-.39-.35-.44a5.78,5.78,0,0,1-.5-1,6.76,6.76,0,0,1-.32-1,8.24,8.24,0,0,1-.21-1,18.26,18.26,0,0,1-.19-1.93c0-.64,0-1.26,0-1.93v-.15l.1-.2,1.22-2.5c.2-.42.43-.82.65-1.24s.38-.84.57-1.25l.56-1.27a10.59,10.59,0,0,0,.5-1.28l.42-1.3c.09-.21.1-.42.17-.64l.16-.64.26-1,.86.53.95.6c.34.15.69.32,1,.46l1.12.34,1.16.22,1.19.13,1.2.06c.81,0,1.62,0,2.43-.08l.32,0,0,.28c-.06.76-.14,1.52-.17,2.27l-.06,1.13a10.89,10.89,0,0,1-.14,1.13l-.18,1.12c-.07.37-.11.75-.2,1.11C260.21,104.7,260.07,105.45,259.8,106.16Zm-.09,0c.25-.7.37-1.45.56-2.18.08-.36.11-.74.17-1.11l.16-1.11a8.66,8.66,0,0,0,.11-1.12l0-1.13.08-2.25.07.06c-.81.1-1.63.16-2.45.2h-1.23L256,97.41l-1.22-.18c-.4-.08-.8-.19-1.2-.29s-.77-.3-1.16-.44-.72-.4-1.08-.61l.13-.06-.14.7a5.1,5.1,0,0,1-.15.7l-.42,1.36a9.64,9.64,0,0,1-.48,1.33l-.54,1.31c-.19.43-.34.88-.57,1.3l-.64,1.26-1.3,2.52,0,0a18.75,18.75,0,0,0,.1,3.67c0,.3.1.6.17.9a6.64,6.64,0,0,0,.25.87,4.71,4.71,0,0,0,.38.82l.27.36.33.3v0h0a3.92,3.92,0,0,0,1.36,1.23,3.54,3.54,0,0,0,.87.33,4.12,4.12,0,0,0,.92.1,4.74,4.74,0,0,0,.93-.14,6.55,6.55,0,0,0,.88-.31l.83-.44.78-.54h0a1.3,1.3,0,0,0,.46-.22,2.25,2.25,0,0,0,.41-.34l.38-.39.33-.44a6.17,6.17,0,0,0,.59-.91c.18-.32.38-.63.53-1l.46-1c.15-.33.31-.66.43-1Z" transform="translate(-31.32 -7.41)"/></svg>